<svg width="647" height="522" viewBox="0 0 647 522" fill="none" xmlns="http://www.w3.org/2000/svg">
<path fill-rule="evenodd" clip-rule="evenodd" d="M267.416 17.6259C260.384 18.0314 253.402 17.6198 246.466 16.3936C253 15.372 259.574 14.7558 266.184 14.5451C262.004 12.3478 257.691 12.1433 253.244 13.9289C252.628 13.3128 252.012 12.6966 251.396 12.0804C253.168 11.8105 254.811 11.1944 256.325 10.2319C254.919 9.09201 254.919 8.06424 256.325 7.15107C244.193 6.35622 232.075 6.56202 219.971 7.76724C217.301 7.56144 214.631 7.35687 211.961 7.15107C213.09 6.80848 213.91 6.19231 214.426 5.30257C216.396 5.63283 218.039 5.22123 219.355 4.07023C222.23 4.07023 225.106 4.07023 227.981 4.07023C240.324 4.54098 252.648 5.36172 264.951 6.5349C267.744 7.68344 270.209 9.32738 272.346 11.4643C278.881 7.14614 285.658 6.32418 292.679 8.99958C293.844 8.50048 294.666 7.67851 295.144 6.5349C296.436 8.51527 298.285 9.33601 300.689 8.99958C300.689 7.76724 300.689 6.5349 300.689 5.30257C289.116 5.73758 277.614 5.12141 266.184 3.45406C273.578 3.24826 280.972 3.04369 288.366 2.83789C315.884 3.82376 343.406 4.02956 370.933 3.45406C349.994 4.56686 329.044 5.38883 308.083 5.91874C316.761 6.86024 325.594 7.47641 334.579 7.76724C335.877 8.9774 336.494 10.4155 336.427 12.0804C334.784 12.9024 333.14 13.7231 331.498 14.5451C355.097 14.5599 378.511 15.3819 401.741 17.0098C356.968 17.6259 312.193 17.8317 267.416 17.6259Z" fill="white"/>
<path fill-rule="evenodd" clip-rule="evenodd" d="M219.358 4.07031C218.042 5.22132 216.399 5.63292 214.429 5.30265C208.723 6.20102 202.971 6.61263 197.176 6.53499C204.309 4.92063 211.703 4.09866 219.358 4.07031Z" fill="white"/>
<path fill-rule="evenodd" clip-rule="evenodd" d="M435.016 5.30284C441.096 4.96887 446.846 5.79084 452.268 7.76751C446.241 7.72808 440.491 6.90611 435.016 5.30284Z" fill="white"/>
<path fill-rule="evenodd" clip-rule="evenodd" d="M214.426 5.30249C213.911 6.19224 213.09 6.80841 211.961 7.151C214.632 7.3568 217.301 7.56137 219.972 7.76717C232.076 6.56194 244.193 6.35614 256.326 7.151C254.92 8.06416 254.92 9.09193 256.326 10.2318C254.811 11.1943 253.168 11.8105 251.396 12.0803C252.012 12.6965 252.629 13.3127 253.245 13.9289C257.691 12.1432 262.004 12.3478 266.184 14.545C259.574 14.7558 253.001 15.3719 246.467 16.3935C253.403 17.6197 260.385 18.0313 267.417 17.6259C267.417 18.0362 267.417 18.4478 267.417 18.8582C259.788 18.4602 252.394 18.8705 245.235 20.0905C240.716 20.0905 236.198 20.0905 231.679 20.0905C216.064 19.8847 200.454 20.0905 184.85 20.7067C184.165 21.1787 183.754 21.7949 183.618 22.5552C181.073 22.5762 178.608 22.9865 176.224 23.7876C166.263 23.6693 156.404 24.49 146.648 26.2522C145.313 25.1863 145.108 23.9539 146.031 22.5552C149.32 18.242 152.812 14.1347 156.506 10.2318C157.479 9.88309 158.301 9.26692 158.971 8.38334C171.726 7.98036 184.459 7.36419 197.173 6.53483C202.969 6.61247 208.72 6.20086 214.426 5.30249Z" fill="white"/>
<path fill-rule="evenodd" clip-rule="evenodd" d="M435.017 5.30253C440.492 6.9058 446.243 7.72777 452.27 7.76721C464.675 7.28043 476.998 7.8966 489.24 9.61571C495.224 13.7502 500.154 18.8854 504.028 25.0199C498.502 26.6355 493.163 26.6355 488.008 25.0199C480.722 22.6095 472.918 21.7875 464.593 22.5553C463.653 21.6088 462.421 20.9927 460.896 20.7068C445.703 20.0906 430.504 19.8848 415.3 20.0906C366.02 18.9408 316.726 18.5304 267.419 18.8582C267.419 18.4479 267.419 18.0363 267.419 17.6259C312.196 17.8317 356.971 17.6259 401.744 17.0097C378.514 15.3818 355.1 14.5599 331.501 14.5451C333.143 13.7231 334.787 12.9024 336.43 12.0804C336.497 10.4155 335.881 8.97736 334.582 7.76721C325.597 7.47638 316.764 6.86021 308.086 5.9187C329.047 5.3888 349.997 4.56683 370.936 3.45402C343.409 4.02953 315.887 3.82373 288.369 2.83786C280.975 3.04366 273.581 3.24822 266.187 3.45402C277.617 5.12138 289.119 5.73755 300.692 5.30253C300.692 6.53487 300.692 7.76721 300.692 8.99955C298.288 9.33597 296.44 8.51524 295.147 6.53487C294.669 7.67848 293.847 8.50045 292.682 8.99955C285.661 6.32414 278.884 7.14611 272.349 11.4642C270.212 9.32735 267.747 7.68341 264.955 6.53487C252.651 5.36168 240.327 4.54095 227.984 4.07019C297.017 -0.694026 366.028 -0.283657 435.017 5.30253Z" fill="white"/>
<path fill-rule="evenodd" clip-rule="evenodd" d="M245.234 20.0907C252.394 18.8707 259.788 18.4604 267.416 18.8584C316.724 18.5306 366.017 18.941 415.297 20.0907C415.297 20.5011 415.297 20.9127 415.297 21.3231C358.622 20.1696 301.934 19.758 245.234 20.0907Z" fill="white"/>
<path fill-rule="evenodd" clip-rule="evenodd" d="M231.678 20.0906C215.914 22.1831 199.894 23.0051 183.617 22.5553C183.754 21.7949 184.164 21.1788 184.85 20.7068C200.453 20.0906 216.063 19.8848 231.678 20.0906Z" fill="white"/>
<path fill-rule="evenodd" clip-rule="evenodd" d="M415.297 21.323C415.297 20.9126 415.297 20.501 415.297 20.0906C430.501 19.8848 445.7 20.0906 460.893 20.7068C462.418 20.9927 463.65 21.6089 464.59 22.5553C457.196 22.5553 449.802 22.5553 442.408 22.5553C433.396 21.7087 424.359 21.2971 415.297 21.323Z" fill="white"/>
<path fill-rule="evenodd" clip-rule="evenodd" d="M442.41 22.5554C449.804 22.5554 457.198 22.5554 464.592 22.5554C472.917 21.7877 480.721 22.6097 488.007 25.0201C472.591 24.6911 457.392 23.8691 442.41 22.5554Z" fill="white"/>
<path fill-rule="evenodd" clip-rule="evenodd" d="M568.108 118.678C566.033 116.471 563.568 114.622 560.714 113.132C562.04 111.005 562.246 108.746 561.331 106.354C559.688 107.997 558.044 107.997 556.401 106.354C555.426 107.889 554.81 109.531 554.553 111.284C550.11 102.243 546.209 92.795 542.845 82.94C534.325 67.9572 526.11 52.7588 518.199 37.3435C512.182 27.4182 504.993 18.3815 496.633 10.232C500.263 8.80869 503.96 8.60413 507.724 9.61588C512.367 11.7996 516.27 14.8804 519.431 18.8584C520.026 20.0267 520.231 21.259 520.047 22.5554C521.495 22.2855 522.728 22.6959 523.744 23.7878C524.575 26.2734 526.013 28.3265 528.057 29.9495C528.468 32.0038 528.879 34.0568 529.29 36.1111C533.268 43.7972 537.786 51.1913 542.845 58.2932C547.849 67.1969 551.546 76.6452 553.937 86.637C557.497 89.358 559.139 93.055 558.866 97.7281C562.869 104.263 565.949 111.247 568.108 118.678Z" fill="white"/>
<path fill-rule="evenodd" clip-rule="evenodd" d="M55.4564 94.0309C42.6586 93.6785 29.9248 94.0901 17.2539 95.2633C17.3907 94.5029 17.8011 93.8867 18.4862 93.4147C31.0253 92.3981 43.3487 92.6039 55.4564 94.0309Z" fill="white"/>
<path fill-rule="evenodd" clip-rule="evenodd" d="M61.616 97.728C62.841 110.24 63.2526 122.974 62.8484 135.931C56.4464 136.326 50.2847 135.914 44.3633 134.698C50.0308 135.068 55.5763 134.658 60.9998 133.466C61.616 121.56 61.8206 109.647 61.616 97.728Z" fill="white"/>
<path fill-rule="evenodd" clip-rule="evenodd" d="M640.815 103.89C640.815 111.284 640.815 118.678 640.815 126.072C638.261 128.352 636.618 131.227 635.885 134.698C619.043 134.698 602.202 134.698 585.359 134.698C585.359 122.375 585.359 110.051 585.359 97.728C587.183 95.3718 589.648 93.9336 592.753 93.4148C603.844 92.5928 614.935 92.5928 626.027 93.4148C632.986 94.2097 637.915 97.7009 640.815 103.89Z" fill="white"/>
<path fill-rule="evenodd" clip-rule="evenodd" d="M585.363 97.728C585.363 110.051 585.363 122.375 585.363 134.698C602.205 134.698 619.047 134.698 635.889 134.698C618.854 135.926 601.602 136.336 584.131 135.931C583.727 122.974 584.138 110.24 585.363 97.728Z" fill="white"/>
<path fill-rule="evenodd" clip-rule="evenodd" d="M9.85902 100.193C7.54223 108.523 6.72026 117.15 7.39435 126.072C5.97346 118.489 5.76766 110.685 6.77818 102.657C7.65067 101.572 8.67844 100.751 9.85902 100.193Z" fill="white"/>
<path fill-rule="evenodd" clip-rule="evenodd" d="M640.816 103.89C643.709 111.249 643.709 118.643 640.816 126.072C640.816 118.678 640.816 111.284 640.816 103.89Z" fill="white"/>
<path fill-rule="evenodd" clip-rule="evenodd" d="M151.579 7.76726C148.8 13.0158 145.514 17.9451 141.72 22.5553C139.872 24.6306 137.818 26.6849 135.559 28.717C115.297 59.3813 99.6878 92.244 88.7299 127.304C87.6158 128.178 87.2055 129.41 87.4975 131.001C96.1337 131.206 104.76 131.001 113.377 130.385C114.505 130.042 115.326 129.426 115.841 128.536C125.893 127.515 136.163 126.899 146.65 126.688C232.502 126.072 318.355 125.866 404.208 126.072C410.143 127.09 416.305 127.706 422.694 127.92C458.018 128.536 493.345 128.742 528.675 128.536C529.085 128.536 529.497 128.536 529.907 128.536C539.895 130.602 550.164 131.424 560.715 131.001C560.235 126.886 559.619 122.778 558.867 118.678C558.395 117.993 557.779 117.582 557.018 117.445C555.859 115.535 555.038 113.482 554.554 111.284C554.811 109.531 555.427 107.889 556.402 106.354C558.045 107.997 559.689 107.997 561.332 106.354C562.247 108.746 562.041 111.005 560.715 113.132C563.569 114.622 566.034 116.471 568.109 118.678C570.236 127.043 573.728 134.848 578.584 142.092C590.319 148.264 601.615 155.247 612.474 163.042C615.749 166.276 619.036 169.562 622.332 172.901C623.329 174.837 623.741 176.891 623.565 179.062C423.481 180.702 223.02 180.702 22.1836 179.062C22.1836 178.652 22.1836 178.24 22.1836 177.83C26.4253 170.916 31.765 164.961 38.204 159.961C48.0886 153.963 58.1531 148.418 68.3963 143.324C73.9529 135.086 77.6499 126.05 79.4873 116.213C82.7998 111.291 84.8542 105.951 85.649 100.193C86.4069 98.2012 87.6392 96.5585 89.346 95.2633C90.7176 88.4287 92.7719 81.8567 95.5077 75.5459C103.655 59.9765 111.869 44.3677 120.154 28.717C125.993 20.3815 133.182 13.6036 141.72 8.38343C144.981 7.77096 148.268 7.56516 151.579 7.76726Z" fill="white"/>
<path fill-rule="evenodd" clip-rule="evenodd" d="M404.207 126.072C435.43 125.866 466.648 126.072 497.865 126.688C508.352 126.899 518.621 127.515 528.673 128.536C493.343 128.742 458.017 128.536 422.692 127.92C416.304 127.706 410.142 127.09 404.207 126.072Z" fill="white"/>
<path fill-rule="evenodd" clip-rule="evenodd" d="M88.7297 127.304C89.5331 128.814 90.9713 129.636 93.0428 129.769C100.607 128.73 108.207 128.319 115.841 128.536C115.326 129.426 114.505 130.042 113.376 130.385C104.76 131.001 96.1335 131.206 87.4973 131.001C87.2053 129.41 87.6156 128.178 88.7297 127.304Z" fill="white"/>
<path fill-rule="evenodd" clip-rule="evenodd" d="M557.018 117.445C557.778 117.582 558.394 117.992 558.866 118.678C559.618 122.778 560.234 126.886 560.715 131.001C550.163 131.424 539.894 130.602 529.906 128.536C539.799 129.363 549.658 129.363 559.482 128.536C558.527 124.859 557.707 121.162 557.018 117.445Z" fill="white"/>
<path fill-rule="evenodd" clip-rule="evenodd" d="M55.457 94.0307C57.8231 94.7269 59.8774 95.9593 61.6187 97.7277C61.8232 109.647 61.6187 121.56 61.0025 133.465C55.579 134.657 50.0334 135.068 44.3659 134.698C33.2749 134.698 22.1838 134.698 11.0928 134.698C10.4236 131.57 9.1913 128.694 7.39578 126.071C6.72169 117.149 7.54366 108.523 9.86046 100.192C11.465 97.3309 13.9296 95.6882 17.2545 95.263C29.9254 94.0898 42.6591 93.6782 55.457 94.0307Z" fill="white"/>
<path fill-rule="evenodd" clip-rule="evenodd" d="M623.565 179.062C523.749 180.705 423.518 181.527 322.874 181.527C222.437 181.527 122.208 181.117 22.1836 180.295C22.1836 179.884 22.1836 179.473 22.1836 179.062C223.02 180.702 423.481 180.702 623.565 179.062Z" fill="white"/>
<path fill-rule="evenodd" clip-rule="evenodd" d="M623.563 179.062C624.795 179.473 625.617 180.295 626.027 181.527C424.539 183.17 222.847 183.17 20.9492 181.527C21.102 180.779 21.5124 180.369 22.1816 180.295C122.206 181.117 222.435 181.527 322.872 181.527C423.516 181.527 523.747 180.705 623.563 179.062Z" fill="white"/>
<path fill-rule="evenodd" clip-rule="evenodd" d="M22.1859 177.83C22.1859 178.24 22.1859 178.652 22.1859 179.062C22.1859 179.473 22.1859 179.884 22.1859 180.295C21.5167 180.368 21.1064 180.779 20.9536 181.527C222.851 183.17 424.543 183.17 626.032 181.527C626.701 181.601 627.111 182.011 627.264 182.759C424.751 183.992 222.238 184.402 19.7212 183.992C19.2529 181.283 20.0749 179.229 22.1859 177.83Z" fill="white"/>
<path fill-rule="evenodd" clip-rule="evenodd" d="M19.7188 197.547C52.7799 196.317 86.053 195.907 119.538 196.315C119.83 197.906 119.42 199.138 118.306 200.012C85.8805 197.558 53.0178 196.736 19.7188 197.547Z" fill="white"/>
<path fill-rule="evenodd" clip-rule="evenodd" d="M506.492 197.547C383.62 197.142 260.796 197.554 138.023 198.78C137.201 198.78 136.381 198.78 135.559 198.78C136.074 197.89 136.894 197.274 138.023 196.931C261.053 195.906 383.876 196.11 506.492 197.547Z" fill="white"/>
<path fill-rule="evenodd" clip-rule="evenodd" d="M626.026 197.547C593.137 196.736 560.686 197.558 528.671 200.012C527.557 199.138 527.147 197.906 527.439 196.315C560.513 195.907 593.375 196.317 626.026 197.547Z" fill="white"/>
<path fill-rule="evenodd" clip-rule="evenodd" d="M626.027 197.547C626.027 202.477 626.027 207.406 626.027 212.335C625.266 212.472 624.65 212.883 624.178 213.568C623.564 209.48 623.359 205.373 623.562 201.244C593.087 200.442 562.895 201.263 532.985 203.709C532.471 202.161 531.445 201.339 529.904 201.244C529.082 201.244 528.672 200.834 528.672 200.012C560.687 197.558 593.138 196.737 626.027 197.547Z" fill="white"/>
<path fill-rule="evenodd" clip-rule="evenodd" d="M506.491 197.547C507.979 198.452 509.622 198.862 511.42 198.78C449.398 200.422 386.959 201.244 324.104 201.244C261.666 201.038 199.228 200.834 136.789 200.628C137.474 200.156 137.885 199.54 138.021 198.78C260.794 197.553 383.618 197.142 506.491 197.547Z" fill="white"/>
<path fill-rule="evenodd" clip-rule="evenodd" d="M135.558 198.78C136.38 198.78 137.201 198.78 138.023 198.78C137.886 199.54 137.475 200.156 136.79 200.628C199.229 200.834 261.667 201.039 324.106 201.244C386.96 201.244 449.399 200.422 511.421 198.78C515.528 200.422 518.405 203.299 520.047 207.406C388.775 209.86 257.325 210.68 125.699 209.871C125.699 209.049 125.699 208.228 125.699 207.406C127.457 202.773 130.743 199.898 135.558 198.78Z" fill="white"/>
<path fill-rule="evenodd" clip-rule="evenodd" d="M529.906 201.244C531.447 201.339 532.473 202.161 532.987 203.709C562.897 201.263 593.089 200.442 623.564 201.244C623.361 205.373 623.566 209.48 624.18 213.568C624.652 212.883 625.268 212.472 626.029 212.335C626.029 215.622 626.029 218.908 626.029 222.194C625.127 231.069 624.305 240.106 623.564 249.306C593.577 249.306 563.59 249.306 533.603 249.306C533.603 246.019 533.603 242.734 533.603 239.447C545.329 239.85 556.83 239.439 568.109 238.215C577.785 238.615 587.232 238.205 596.453 236.982C602.12 237.352 607.666 236.942 613.089 235.75C614.101 226.903 613.896 218.277 612.473 209.871C586.59 210.077 560.711 209.871 534.836 209.255C532.882 206.705 531.238 204.034 529.906 201.244Z" fill="white"/>
<path fill-rule="evenodd" clip-rule="evenodd" d="M113.375 208.638C86.4732 209.664 59.3618 210.28 32.0409 210.487C30.8344 218.798 30.424 227.22 30.8085 235.75C29.1732 227.04 29.1732 218.208 30.8085 209.255C58.3279 208.638 85.8497 208.433 113.375 208.638Z" fill="white"/>
<path fill-rule="evenodd" clip-rule="evenodd" d="M520.047 207.406C521.198 208.722 521.61 210.365 521.28 212.335C520.047 212.335 518.815 212.335 517.583 212.335C386.537 213.155 255.909 212.333 125.699 209.871C257.325 210.68 388.775 209.86 520.047 207.406Z" fill="white"/>
<path fill-rule="evenodd" clip-rule="evenodd" d="M125.698 207.406C125.698 208.228 125.698 209.049 125.698 209.871C255.908 212.333 386.536 213.155 517.582 212.335C386.749 213.772 255.711 213.978 124.466 212.952C123.168 210.796 123.579 208.948 125.698 207.406Z" fill="white"/>
<path fill-rule="evenodd" clip-rule="evenodd" d="M19.7186 197.547C53.0176 196.737 85.8804 197.558 118.306 200.012C115.763 202.414 114.121 205.289 113.376 208.638C85.8508 208.433 58.329 208.638 30.8096 209.255C29.1743 218.208 29.1743 227.04 30.8096 235.75C32.1258 236.901 33.7685 237.312 35.739 236.982C35.8758 237.743 36.2861 238.359 36.9713 238.831C61.6144 239.447 86.2611 239.653 110.912 239.447C113.354 242.031 114.586 245.318 114.609 249.306C82.9757 249.511 51.3465 249.306 19.7186 248.689C19.1024 248.073 18.4862 247.457 17.8701 246.841C17.6643 238.831 17.4597 230.821 17.2539 222.81C17.3007 214.096 18.1227 205.676 19.7186 197.547Z" fill="white"/>
<path fill-rule="evenodd" clip-rule="evenodd" d="M7.39233 249.305C6.57036 249.305 6.15999 248.895 6.15999 248.073C6.94622 236.495 6.12425 225.404 3.69531 214.8C3.94917 212.275 4.97571 211.863 6.77616 213.568C7.39233 225.473 7.59689 237.386 7.39233 249.305Z" fill="white"/>
<path fill-rule="evenodd" clip-rule="evenodd" d="M639.584 207.406C638.694 206.891 638.078 206.071 637.735 204.942C637.527 219.534 636.911 233.91 635.887 248.074C635.887 232.875 635.887 217.675 635.887 202.477C637.119 202.477 638.351 202.477 639.584 202.477C639.584 204.12 639.584 205.764 639.584 207.406Z" fill="white"/>
<path fill-rule="evenodd" clip-rule="evenodd" d="M612.474 209.871C613.897 218.276 614.101 226.903 613.09 235.75C607.666 236.941 602.121 237.352 596.453 236.982C601.463 236.128 606.598 235.306 611.857 234.517C612.474 226.312 612.678 218.096 612.474 209.871Z" fill="white"/>
<path fill-rule="evenodd" clip-rule="evenodd" d="M3.69718 214.8C6.12612 225.404 6.94809 236.495 6.16186 248.073C5.14025 239.667 4.52408 231.041 4.31335 222.194C4.07797 224.915 3.46181 227.38 2.46484 229.588C2.47101 224.617 2.88137 219.688 3.69718 214.8Z" fill="white"/>
<path fill-rule="evenodd" clip-rule="evenodd" d="M35.7383 236.982C61.0074 237.344 86.0645 238.166 110.911 239.447C86.2604 239.653 61.6137 239.447 36.9706 238.831C36.2854 238.359 35.8751 237.743 35.7383 236.982Z" fill="white"/>
<path fill-rule="evenodd" clip-rule="evenodd" d="M138.023 241.912C138.023 242.734 138.433 243.144 139.255 243.144C139.255 243.554 139.255 243.966 139.255 244.376C138.586 244.45 138.175 244.861 138.023 245.609C262.899 247.251 387.777 247.251 512.653 245.609C506.546 244.384 500.384 243.973 494.168 244.376C500.33 243.554 506.492 242.734 512.653 241.912C515.94 241.912 519.225 241.912 522.512 241.912C523.238 247.421 522.417 252.351 520.047 256.7C392.313 257.916 264.562 258.326 136.79 257.932C133.479 258.134 130.192 257.928 126.932 257.316C126.246 256.844 125.836 256.228 125.699 255.467C125.699 250.948 125.699 246.431 125.699 241.912C129.807 241.912 133.915 241.912 138.023 241.912Z" fill="white"/>
<path fill-rule="evenodd" clip-rule="evenodd" d="M139.256 244.376C257.56 244.376 375.865 244.376 494.169 244.376C500.385 243.973 506.547 244.383 512.654 245.608C387.778 247.251 262.9 247.251 138.023 245.608C138.176 244.86 138.587 244.45 139.256 244.376Z" fill="white"/>
<path fill-rule="evenodd" clip-rule="evenodd" d="M512.652 241.912C506.491 242.734 500.329 243.554 494.167 244.376C375.863 244.376 257.558 244.376 139.254 244.376C139.254 243.966 139.254 243.554 139.254 243.144C263.726 243.48 388.192 243.07 512.652 241.912Z" fill="white"/>
<path fill-rule="evenodd" clip-rule="evenodd" d="M626.027 222.194C626.804 231.736 625.982 240.773 623.562 249.306C624.303 240.106 625.125 231.069 626.027 222.194Z" fill="white"/>
<path fill-rule="evenodd" clip-rule="evenodd" d="M138.022 241.912C133.915 241.912 129.806 241.912 125.699 241.912C125.699 246.431 125.699 250.948 125.699 255.467C124.617 250.74 123.796 245.811 123.234 240.679C128.413 240.289 133.342 240.7 138.022 241.912Z" fill="white"/>
<path fill-rule="evenodd" clip-rule="evenodd" d="M568.109 238.215C556.831 239.44 545.329 239.85 533.603 239.447C533.603 242.734 533.603 246.019 533.603 249.306C563.59 249.306 593.578 249.306 623.564 249.306C593.379 250.536 562.981 250.946 532.371 250.538C532.371 246.431 532.371 242.322 532.371 238.215C544.284 238.215 556.196 238.215 568.109 238.215Z" fill="white"/>
<path fill-rule="evenodd" clip-rule="evenodd" d="M639.581 207.406C642.382 215.342 643.614 223.557 643.278 232.053C642.779 236.425 643.395 240.533 645.127 244.376C645.743 283.398 645.949 322.423 645.743 361.448C647.007 384.868 647.007 408.282 645.743 431.692C642.907 439.006 639.416 445.989 635.268 452.641C634.155 454.121 632.718 455.149 630.955 455.722C606.098 460.41 581.041 462.464 555.782 461.884C547.398 448.202 539.8 434.031 532.984 419.368C528.051 413.41 522.916 407.659 517.58 402.115C478.371 399.975 438.937 399.153 399.275 399.651C309.705 399.17 220.156 400.197 130.625 402.732C126.75 405.169 123.463 408.25 120.767 411.974C117.018 418.959 112.91 425.531 108.443 431.692C107.679 428.639 106.447 428.639 104.746 431.692C102.183 427.424 102.183 423.315 104.746 419.368C104.205 417.392 103.383 415.543 102.282 413.823C102.836 412.239 103.658 410.801 104.746 409.51C102.763 408.492 100.709 407.259 98.5846 405.813C101.981 400.543 104.857 394.998 107.211 389.176C106.801 388.56 106.389 387.944 105.979 387.327C105.157 388.149 104.336 388.97 103.514 389.792C103.104 389.382 102.692 388.97 102.282 388.56C103.201 387.037 103.611 385.393 103.514 383.63C101.016 383.83 98.5513 383.624 96.1199 383.014C93.0033 379.575 89.3063 378.548 85.0288 379.933C79.0729 379.009 73.3229 377.366 67.7761 375.004C68.9209 372.759 68.099 371.116 65.3114 370.075C64.4895 370.897 63.6687 371.717 62.8468 372.539C61.193 370.685 59.1399 369.863 56.6851 370.075C56.1675 367.396 56.1675 364.931 56.6851 362.681C79.7002 369.995 103.525 376.361 128.161 381.782C140.466 383.101 152.789 384.128 165.131 384.863C217.069 387.221 269.032 389.276 321.022 391.024C365.206 390.336 409.364 388.897 453.498 386.711C473.871 384.74 493.999 381.864 513.883 378.085C512.24 377.675 510.596 377.263 508.953 376.853C511.68 376.081 514.351 376.287 516.963 377.469C518.89 376.727 518.684 375.7 516.347 374.388C520.044 373.566 523.741 373.566 527.438 374.388C522.615 375.493 522.819 376.109 528.054 376.236C533.044 374.642 538.178 373.615 543.459 373.156C542.637 372.745 541.816 372.334 540.994 371.923C544.281 371.513 547.566 371.101 550.853 370.691C550.031 370.281 549.21 369.869 548.388 369.459C550.999 369.338 553.054 368.311 554.55 366.378C551.359 365.509 548.073 365.509 544.691 366.378C549.259 364.295 554.189 362.858 559.479 362.065C566.547 358.963 573.53 355.676 580.429 352.206C587.951 347.108 595.139 341.562 601.995 335.569C603.121 332.902 604.559 330.438 606.308 328.175C612.169 307.296 614.634 285.934 613.702 264.094C620.838 265.34 626.794 263.285 631.571 257.932C632.687 254.469 634.125 251.184 635.884 248.073C636.908 233.91 637.524 219.534 637.733 204.941C638.075 206.07 638.691 206.891 639.581 207.406Z" fill="white"/>
<path fill-rule="evenodd" clip-rule="evenodd" d="M520.046 256.699C518.257 257.688 516.204 258.304 513.885 258.548C387.98 259.575 262.282 259.369 136.789 257.932C264.56 258.326 392.312 257.916 520.046 256.699Z" fill="white"/>
<path fill-rule="evenodd" clip-rule="evenodd" d="M6.16169 248.073C6.16169 248.895 6.57206 249.306 7.39403 249.306C11.3178 261.135 19.5338 266.064 32.0408 264.094C31.9336 274.21 32.7543 284.069 34.5055 293.67C35.0391 302.405 36.6818 311.031 39.4348 319.549C39.181 323.24 40.0017 326.526 41.8995 329.408C43.8885 334.161 46.7648 338.269 50.5259 341.731C58.9341 346.666 67.1501 351.802 75.1726 357.135C78.8955 358.181 82.5925 359.209 86.2637 360.216C86.4005 360.976 86.8108 361.592 87.496 362.064C93.5357 364.03 99.6974 365.467 105.981 366.378C110.088 367.2 114.197 368.02 118.304 368.842C102.019 368.671 102.019 369.698 118.304 371.923C115.071 372.633 114.249 374.277 115.84 376.853C128.274 380.43 141.008 382.073 154.042 381.782C157.897 382.818 161.594 383.846 165.133 384.863C152.791 384.128 140.468 383.1 128.163 381.782C103.527 376.361 79.7027 369.995 56.6876 362.681C56.17 364.931 56.17 367.396 56.6876 370.075C59.1424 369.863 61.1954 370.685 62.8492 372.539C63.6712 371.717 64.4919 370.897 65.3139 370.075C68.1015 371.116 68.9234 372.759 67.7786 375.004C73.3253 377.366 79.0754 379.009 85.0313 379.933C89.3088 378.548 93.0058 379.575 96.1224 383.014C98.5538 383.624 101.018 383.83 103.516 383.63C103.614 385.393 103.203 387.037 102.284 388.56C102.694 388.97 103.106 389.382 103.516 389.792C104.338 388.97 105.159 388.149 105.981 387.327C106.391 387.944 106.803 388.56 107.213 389.176C104.86 394.997 101.983 400.543 98.587 405.812C100.712 407.259 102.766 408.492 104.749 409.509C103.661 410.801 102.839 412.239 102.284 413.823C103.386 415.543 104.208 417.392 104.749 419.368C102.185 423.315 102.185 427.424 104.749 431.692C106.449 428.639 107.682 428.639 108.446 431.692C104.008 442.263 99.0787 452.533 93.6577 462.5C67.0737 462.807 40.7842 460.342 14.7881 455.106C9.74286 448.613 5.42968 441.629 1.84851 434.156C1.13129 428.828 0.515117 423.488 0 418.136C0.793626 355.091 1.6156 292.241 2.46468 229.588C3.46164 227.38 4.07781 224.915 4.31318 222.194C4.52391 231.041 5.14008 239.667 6.16169 248.073Z" fill="white"/>
<path fill-rule="evenodd" clip-rule="evenodd" d="M32.0405 264.094C33.6635 273.705 34.4843 283.563 34.5052 293.67C32.7541 284.068 31.9333 274.21 32.0405 264.094Z" fill="white"/>
<path fill-rule="evenodd" clip-rule="evenodd" d="M517.583 289.973C409.959 289.973 302.334 289.973 194.71 289.973C173.35 289.973 151.989 289.973 130.628 289.973C130.313 294.617 130.723 299.136 131.861 303.528C129.491 299.18 128.67 294.25 129.396 288.74C258.999 288.33 388.394 288.742 517.583 289.973Z" fill="white"/>
<path fill-rule="evenodd" clip-rule="evenodd" d="M194.712 289.973C301.096 292.434 407.899 293.256 515.12 292.437C515.12 295.312 515.12 298.189 515.12 301.064C508.125 300.859 501.141 301.065 494.17 301.68C501.964 302.296 509.769 302.501 517.584 302.296C507.517 303.372 497.247 304.193 486.776 304.761C383.681 305.951 280.575 306.363 177.459 305.993C177.049 305.993 176.637 305.993 176.227 305.993C169.078 304.536 161.684 303.716 154.045 303.528C146.651 303.528 139.257 303.528 131.863 303.528C130.725 299.136 130.315 294.617 130.63 289.973C151.99 289.973 173.352 289.973 194.712 289.973Z" fill="white"/>
<path fill-rule="evenodd" clip-rule="evenodd" d="M194.711 289.973C302.335 289.973 409.96 289.973 517.584 289.973C517.584 294.08 517.584 298.189 517.584 302.296C509.768 302.501 501.964 302.296 494.169 301.68C501.14 301.065 508.124 300.859 515.119 301.064C515.119 298.189 515.119 295.312 515.119 292.437C407.898 293.256 301.095 292.434 194.711 289.973Z" fill="white"/>
<path fill-rule="evenodd" clip-rule="evenodd" d="M643.281 232.053C644.522 235.53 645.548 239.227 646.362 243.144C647.386 282.787 647.18 322.222 645.745 361.448C645.951 322.423 645.745 283.398 645.129 244.376C643.398 240.532 642.782 236.425 643.281 232.053Z" fill="white"/>
<path fill-rule="evenodd" clip-rule="evenodd" d="M154.043 303.528C161.682 303.716 169.076 304.536 176.225 305.993C168.523 306.382 161.129 305.562 154.043 303.528Z" fill="white"/>
<path fill-rule="evenodd" clip-rule="evenodd" d="M486.774 304.761C482.489 305.775 477.97 306.391 473.218 306.609C374.424 307.635 275.837 307.43 177.457 305.993C280.573 306.363 383.679 305.951 486.774 304.761Z" fill="white"/>
<path fill-rule="evenodd" clip-rule="evenodd" d="M39.4356 319.549C40.9982 322.513 41.8202 325.799 41.9003 329.408C40.0025 326.526 39.1817 323.24 39.4356 319.549Z" fill="white"/>
<path fill-rule="evenodd" clip-rule="evenodd" d="M494.168 334.337C500.502 333.119 507.075 332.709 513.885 333.105C514.177 334.696 513.767 335.928 512.653 336.802C507.039 334.408 500.877 333.588 494.168 334.337Z" fill="white"/>
<path fill-rule="evenodd" clip-rule="evenodd" d="M494.167 334.337C494.167 334.747 494.167 335.159 494.167 335.569C374.212 334.751 254.676 335.572 135.557 338.034C133.58 337.064 132.758 335.421 133.092 333.104C253.44 334.305 373.797 334.715 494.167 334.337Z" fill="white"/>
<path fill-rule="evenodd" clip-rule="evenodd" d="M494.169 335.569C497.955 335.179 501.652 335.589 505.26 336.802C382.783 338.23 260.371 338.436 138.023 337.418C141.243 338.738 141.243 339.765 138.023 340.499C136.791 340.088 135.969 339.266 135.559 338.034C254.678 335.572 374.214 334.751 494.169 335.569Z" fill="white"/>
<path fill-rule="evenodd" clip-rule="evenodd" d="M494.169 335.569C494.169 335.159 494.169 334.747 494.169 334.337C500.878 333.588 507.04 334.408 512.654 336.802C507.64 342.188 501.478 345.679 494.169 347.277C379.151 348.099 264.132 348.099 149.114 347.277C144.481 346.246 140.784 343.987 138.023 340.499C141.244 339.765 141.244 338.738 138.023 337.418C260.371 338.436 382.783 338.23 505.26 336.802C501.652 335.589 497.955 335.179 494.169 335.569Z" fill="white"/>
<path fill-rule="evenodd" clip-rule="evenodd" d="M86.2617 360.216C93.5017 361.006 100.074 363.059 105.979 366.378C99.6954 365.467 93.5337 364.03 87.4941 362.065C86.8089 361.593 86.3985 360.976 86.2617 360.216Z" fill="white"/>
<path fill-rule="evenodd" clip-rule="evenodd" d="M105.98 366.378C115.76 366.385 125.209 367.617 134.324 370.075C128.864 370.406 123.523 369.996 118.304 368.842C114.196 368.02 110.088 367.2 105.98 366.378Z" fill="white"/>
<path fill-rule="evenodd" clip-rule="evenodd" d="M544.695 366.378C544.558 367.138 544.148 367.754 543.463 368.226C539.766 368.637 536.069 369.048 532.372 369.459C533.194 369.869 534.015 370.281 534.837 370.691C490.119 373.487 445.343 374.514 400.512 373.772C433.165 372.746 466.028 372.13 499.099 371.923C514.285 369.735 529.483 367.886 544.695 366.378Z" fill="white"/>
<path fill-rule="evenodd" clip-rule="evenodd" d="M165.129 384.863C161.59 383.846 157.893 382.818 154.038 381.782C141.003 382.073 128.27 380.43 115.835 376.853C114.244 374.277 115.066 372.633 118.3 371.923C102.015 369.698 102.015 368.671 118.3 368.842C123.519 369.996 128.86 370.406 134.32 370.075C135.142 370.075 135.963 370.075 136.785 370.075C142.231 371.889 147.982 372.709 154.038 372.539C236.193 373.058 318.349 373.469 400.505 373.772C445.337 374.514 490.112 373.487 534.83 370.691C534.008 370.28 533.188 369.869 532.366 369.459C536.063 369.048 539.76 368.637 543.457 368.226C544.142 367.754 544.552 367.138 544.689 366.378C548.07 365.509 551.357 365.509 554.548 366.378C553.052 368.311 550.997 369.338 548.386 369.459C549.208 369.869 550.029 370.28 550.851 370.691C547.564 371.101 544.279 371.513 540.992 371.923C541.814 372.334 542.635 372.745 543.457 373.156C538.176 373.615 533.042 374.642 528.052 376.236C522.817 376.109 522.613 375.493 527.436 374.388C523.739 373.566 520.042 373.566 516.345 374.388C518.682 375.7 518.887 376.727 516.961 377.469C514.349 376.287 511.678 376.081 508.951 376.853C510.594 377.263 512.238 377.675 513.88 378.085C493.997 381.864 473.869 384.74 453.496 386.711C409.362 388.897 365.204 390.336 321.02 391.024C269.03 389.276 217.067 387.221 165.129 384.863Z" fill="white"/>
<path fill-rule="evenodd" clip-rule="evenodd" d="M136.789 370.075C142.893 369.61 148.643 370.431 154.042 372.54C147.986 372.71 142.235 371.889 136.789 370.075Z" fill="white"/>
<path fill-rule="evenodd" clip-rule="evenodd" d="M589.056 378.701C595.387 378.001 601.549 377.18 607.541 376.236C615.515 374.93 623.525 373.698 631.572 372.539C634.268 372.359 635.911 373.592 636.501 376.236C637.834 384.313 637.012 392.119 634.037 399.651C624.468 405.66 613.993 407.92 602.612 406.429C597.889 400.473 593.164 394.516 588.44 388.56C587.629 385.128 586.603 381.842 585.359 378.701C586.592 378.701 587.824 378.701 589.056 378.701Z" fill="black"/>
<path fill-rule="evenodd" clip-rule="evenodd" d="M17.2532 373.772C23.3446 374.961 29.5063 375.783 35.7383 376.236C43.3208 377.257 51.1265 377.873 59.1527 378.085C60.2901 380.6 60.7005 383.271 60.385 386.095C59.3055 385.934 58.4835 386.344 57.9204 387.327C54.3441 393.566 51.0575 399.933 48.0617 406.429C39.7865 407.305 31.5705 406.895 23.4149 405.196C22.7297 404.724 22.3193 404.108 22.1826 403.348C20.0075 402.164 17.5428 401.752 14.7885 402.116C13.6819 392.72 13.2715 383.272 13.5562 373.772C14.7885 373.772 16.0209 373.772 17.2532 373.772Z" fill="black"/>
<path fill-rule="evenodd" clip-rule="evenodd" d="M607.544 376.236C601.551 377.18 595.389 378.001 589.059 378.701C589.195 377.941 589.606 377.325 590.291 376.853C596.027 376.238 601.778 376.032 607.544 376.236Z" fill="white"/>
<path fill-rule="evenodd" clip-rule="evenodd" d="M35.7383 376.236C44.775 376.236 53.813 376.236 62.8497 376.236C63.0506 379.141 62.846 382.016 62.2335 384.863C61.7616 385.548 61.1454 385.958 60.385 386.095C60.7005 383.271 60.2902 380.6 59.1527 378.085C51.1265 377.873 43.3209 377.257 35.7383 376.236Z" fill="white"/>
<path fill-rule="evenodd" clip-rule="evenodd" d="M17.2521 373.772C16.0198 373.772 14.7874 373.772 13.5551 373.772C13.2704 383.272 13.6808 392.72 14.7874 402.116C17.5417 401.752 20.0064 402.164 22.1815 403.348C18.6151 403.912 15.5342 403.09 12.9389 400.883C12.3228 391.445 12.1182 381.996 12.3228 372.539C14.2933 372.209 15.936 372.621 17.2521 373.772Z" fill="white"/>
<path fill-rule="evenodd" clip-rule="evenodd" d="M399.277 399.651C438.939 399.153 478.374 399.975 517.582 402.116C477.92 402.596 438.485 401.775 399.277 399.651Z" fill="white"/>
<path fill-rule="evenodd" clip-rule="evenodd" d="M515.119 436.621C387.777 436.621 260.435 436.621 133.094 436.621C133.231 435.861 133.641 435.244 134.326 434.772C197.791 434.567 261.257 434.362 324.722 434.156C388.604 434.156 452.07 434.978 515.119 436.621Z" fill="white"/>
<path fill-rule="evenodd" clip-rule="evenodd" d="M133.092 436.621C196.552 438.264 260.428 439.086 324.72 439.086C389.013 439.086 452.889 438.264 516.349 436.621C522.051 436.711 527.391 438.149 532.369 440.934C536.131 445.791 539.416 450.925 542.228 456.338C542.228 456.749 542.228 457.16 542.228 457.571C539.913 457.439 539.502 458.055 540.996 459.419C395.992 460.035 250.986 460.241 105.98 460.035C105.98 459.213 105.98 458.393 105.98 457.571C108.312 451.971 111.187 446.63 114.607 441.55C120.264 438.184 126.426 436.541 133.092 436.621Z" fill="white"/>
<path fill-rule="evenodd" clip-rule="evenodd" d="M133.094 436.621C260.435 436.621 387.777 436.621 515.119 436.621C515.529 436.621 515.941 436.621 516.351 436.621C452.89 438.264 389.015 439.086 324.722 439.086C260.43 439.086 196.554 438.264 133.094 436.621Z" fill="white"/>
<path fill-rule="evenodd" clip-rule="evenodd" d="M542.227 456.338C543.399 458.087 543.809 460.14 543.459 462.5C397.222 462.5 250.985 462.5 104.747 462.5C104.417 460.53 104.828 458.887 105.979 457.571C105.979 458.393 105.979 459.213 105.979 460.035C251.188 461.268 396.604 461.678 542.227 461.268C542.227 460.035 542.227 458.803 542.227 457.571C542.227 457.16 542.227 456.749 542.227 456.338Z" fill="white"/>
<path fill-rule="evenodd" clip-rule="evenodd" d="M542.228 457.571C542.228 458.803 542.228 460.035 542.228 461.268C396.605 461.678 251.189 461.268 105.98 460.035C250.986 460.241 395.992 460.035 540.996 459.419C539.502 458.055 539.913 457.439 542.228 457.571Z" fill="white"/>
<path fill-rule="evenodd" clip-rule="evenodd" d="M8.62953 466.197C9.4515 466.197 9.86187 466.607 9.86187 467.429C10.6617 485.142 9.83969 502.394 7.3972 519.188C6.99176 501.306 7.40213 483.643 8.62953 466.197Z" fill="white"/>
<path fill-rule="evenodd" clip-rule="evenodd" d="M8.62799 464.965C6.19658 476.394 5.37461 488.307 6.16331 500.702C4.93837 488.602 4.528 476.279 4.93097 463.732C6.52192 463.44 7.75426 463.85 8.62799 464.965Z" fill="white"/>
<path fill-rule="evenodd" clip-rule="evenodd" d="M8.62544 464.964C8.62544 465.375 8.62544 465.786 8.62544 466.197C7.39803 483.643 6.98766 501.306 7.3931 519.187C6.17678 513.266 5.76518 507.104 6.16076 500.702C5.37207 488.307 6.19404 476.394 8.62544 464.964Z" fill="white"/>
<path fill-rule="evenodd" clip-rule="evenodd" d="M638.352 472.359C637.554 488.842 638.376 504.863 640.817 520.42C639.943 521.534 638.711 521.944 637.12 521.652C636.714 505.003 637.125 488.571 638.352 472.359Z" fill="white"/>
<path fill-rule="evenodd" clip-rule="evenodd" d="M640.817 520.42C641.223 503.771 640.812 487.339 639.585 471.126C639.424 470.047 639.834 469.225 640.817 468.662C641.78 470.176 642.396 471.819 642.666 473.591C643.488 488.789 643.488 503.989 642.666 519.187C642.194 519.873 641.578 520.283 640.817 520.42Z" fill="white"/>
<path fill-rule="evenodd" clip-rule="evenodd" d="M9.85921 467.429C10.871 471.3 11.4871 475.409 11.7077 479.753C12.3239 493.713 12.5297 507.68 12.3239 521.652C10.0071 521.986 8.36438 521.164 7.39453 519.188C9.83703 502.395 10.659 485.142 9.85921 467.429Z" fill="white"/>
<path fill-rule="evenodd" clip-rule="evenodd" d="M639.586 471.126C640.813 487.339 641.224 503.771 640.818 520.42C638.377 504.863 637.555 488.843 638.354 472.359C638.354 471.537 638.764 471.126 639.586 471.126Z" fill="white"/>
</svg>
